<?xml version="1.0" standalone="no"?>
<!DOCTYPE svg PUBLIC "-//W3C//DTD SVG 20010904//EN"
 "http://www.w3.org/TR/2001/REC-SVG-20010904/DTD/svg10.dtd">
<svg version="1.0" xmlns="http://www.w3.org/2000/svg"
 width="700.000000pt" height="700.000000pt" viewBox="0 0 700.000000 700.000000"
 preserveAspectRatio="xMidYMid meet">
<metadata>
Created by potrace 1.14, written by Peter Selinger 2001-2017
</metadata>
<g transform="translate(0.000000,700.000000) scale(0.100000,-0.100000)"
fill="#000000" stroke="none">
<path d="M3217 6993 c-3 -5 -28 -9 -56 -8 -28 0 -51 -3 -51 -6 0 -3 -12 -6
-27 -6 -16 -1 -53 -4 -83 -8 -30 -3 -61 -7 -67 -7 -7 -1 -13 -4 -13 -7 0 -3
-10 -6 -22 -7 -44 -2 -94 -10 -106 -18 -7 -4 -12 -4 -12 0 0 3 -6 2 -12 -3 -7
-5 -25 -9 -40 -8 -16 0 -28 -2 -28 -5 0 -4 -7 -7 -15 -8 -8 -1 -22 -3 -30 -4
-8 -1 -15 -4 -15 -7 0 -3 -10 -7 -22 -7 -30 -2 -50 -8 -65 -17 -7 -5 -13 -6
-13 -3 0 3 -18 -1 -39 -9 -22 -7 -42 -11 -45 -8 -3 4 -6 1 -6 -5 0 -7 -10 -12
-23 -12 -13 0 -28 -5 -35 -12 -7 -7 -12 -8 -12 -4 0 5 -8 2 -17 -5 -9 -8 -14
-9 -10 -3 3 6 -16 0 -43 -13 -26 -12 -59 -24 -72 -25 -12 -2 -26 -7 -30 -12
-3 -5 -16 -11 -28 -13 -12 -2 -28 -10 -37 -18 -8 -8 -19 -13 -24 -10 -5 4 -9
2 -9 -4 0 -6 -7 -8 -15 -5 -8 4 -15 1 -15 -6 0 -6 -6 -10 -12 -8 -7 3 -19 -1
-26 -9 -7 -7 -22 -13 -33 -13 -10 0 -19 -4 -19 -9 0 -10 -29 -22 -43 -18 -5 1
-13 -6 -18 -16 -6 -9 -14 -15 -19 -12 -5 3 -11 1 -15 -5 -4 -6 -10 -8 -15 -5
-4 3 -13 -2 -20 -10 -7 -8 -19 -15 -26 -15 -8 0 -14 -5 -14 -11 0 -5 -4 -7
-10 -4 -5 3 -10 2 -10 -3 0 -6 -11 -13 -25 -16 -14 -4 -25 -11 -25 -16 0 -6
-6 -10 -14 -10 -7 0 -19 -7 -26 -15 -7 -8 -16 -12 -21 -9 -5 3 -9 0 -9 -6 0
-6 -5 -8 -10 -5 -6 3 -13 -1 -16 -9 -3 -9 -12 -16 -18 -16 -7 0 -23 -10 -36
-22 -14 -13 -25 -21 -26 -18 -2 3 -13 -4 -26 -15 -13 -11 -36 -26 -51 -34 -15
-8 -27 -18 -27 -23 0 -4 -7 -8 -15 -8 -9 0 -18 -7 -21 -15 -4 -8 -12 -15 -20
-15 -8 0 -14 -5 -14 -11 0 -5 -4 -8 -9 -5 -5 3 -12 -1 -15 -10 -3 -8 -11 -12
-17 -8 -8 4 -9 3 -5 -5 4 -6 0 -14 -11 -18 -10 -4 -27 -16 -38 -28 -11 -12
-29 -24 -38 -28 -10 -4 -15 -12 -12 -17 4 -6 3 -9 -2 -8 -8 3 -37 -19 -79 -59
-13 -13 -26 -23 -29 -23 -10 0 -195 -191 -195 -201 0 -5 -7 -9 -17 -9 -9 0
-14 -3 -11 -6 4 -3 -7 -18 -23 -33 -16 -16 -29 -34 -29 -40 0 -7 -4 -10 -8 -7
-5 3 -15 -6 -22 -19 -7 -13 -17 -22 -22 -19 -5 3 -7 1 -6 -4 2 -5 -11 -25 -29
-45 -17 -19 -29 -38 -26 -41 4 -3 1 -6 -5 -6 -6 0 -18 -12 -26 -27 -8 -16 -16
-23 -16 -18 0 6 -9 -8 -20 -30 -11 -22 -19 -36 -20 -31 0 4 -16 -16 -37 -45
-20 -30 -40 -57 -45 -60 -6 -3 -9 -10 -9 -15 0 -5 -9 -19 -19 -31 -11 -13 -17
-23 -14 -23 3 0 -8 -19 -23 -43 -43 -66 -53 -81 -60 -97 -3 -8 -15 -27 -25
-42 -11 -16 -16 -28 -13 -28 3 0 -2 -12 -13 -27 -20 -29 -65 -114 -65 -123 0
-3 -12 -30 -28 -60 -15 -30 -25 -58 -23 -62 3 -4 1 -8 -5 -8 -5 0 -12 -13 -16
-30 -4 -16 -11 -30 -17 -30 -6 0 -9 -3 -5 -6 3 -3 -5 -30 -18 -60 -13 -30 -22
-54 -19 -54 2 0 -2 -13 -11 -30 -8 -16 -15 -31 -14 -32 0 -2 -4 -16 -10 -31
-6 -16 -11 -36 -11 -46 0 -10 -3 -21 -8 -25 -4 -4 -8 -12 -8 -17 -1 -5 -2 -10
-4 -11 -4 -6 -12 -44 -14 -65 0 -13 -4 -23 -8 -23 -6 0 -40 -134 -40 -157 0
-5 -4 -16 -9 -25 -6 -11 -5 -18 4 -21 9 -4 9 -6 0 -6 -8 -1 -13 -14 -13 -32 0
-16 -4 -28 -8 -25 -5 3 -8 -17 -7 -44 1 -28 -2 -47 -7 -44 -5 4 -8 -2 -7 -12
2 -11 0 -25 -5 -33 -7 -10 -6 -12 4 -6 10 6 11 4 4 -6 -10 -16 -13 -31 -16
-81 -2 -21 -7 -38 -13 -38 -7 0 -7 -3 0 -8 13 -9 19 -35 6 -28 -5 3 -8 -17 -7
-45 2 -27 0 -52 -4 -54 -12 -8 -9 -469 3 -477 9 -6 9 -8 0 -8 -7 0 -13 -5 -13
-11 0 -5 3 -8 8 -6 4 3 7 -26 6 -64 -1 -38 2 -69 6 -69 4 0 7 -15 7 -32 2 -63
6 -103 11 -113 4 -5 7 -23 7 -40 0 -16 4 -36 8 -43 5 -7 5 -21 2 -32 -4 -11
-2 -20 2 -20 5 0 10 -17 11 -37 2 -20 7 -42 11 -48 5 -5 7 -18 6 -27 -2 -10 1
-20 5 -23 5 -3 7 -11 4 -18 -2 -7 4 -35 15 -64 13 -37 16 -53 7 -57 -7 -3 -7
-5 2 -5 6 -1 12 -10 12 -20 0 -11 4 -22 10 -26 5 -3 7 -12 4 -19 -3 -8 -1 -17
5 -20 6 -4 8 -13 4 -21 -3 -8 0 -15 6 -15 6 0 11 -9 11 -20 0 -12 7 -34 15
-49 8 -16 11 -31 8 -35 -3 -3 1 -14 10 -24 10 -10 14 -22 11 -25 -4 -4 -1 -13
6 -22 7 -8 10 -15 6 -15 -3 0 3 -16 14 -37 10 -20 17 -40 14 -45 -3 -4 0 -8 5
-8 6 0 11 -9 11 -20 0 -11 4 -20 10 -20 5 0 9 -3 8 -7 -1 -7 8 -33 29 -83 3
-8 5 -18 5 -22 -1 -5 3 -8 9 -8 5 0 7 -4 4 -10 -3 -5 -2 -10 4 -10 6 0 13 -11
17 -25 3 -13 12 -29 19 -35 8 -6 11 -18 8 -26 -3 -8 -1 -14 5 -14 5 0 17 -17
26 -37 19 -44 58 -116 67 -123 8 -8 22 -44 20 -53 -1 -5 3 -6 8 -3 5 4 12 -3
16 -14 3 -11 10 -20 15 -20 5 0 7 -6 4 -14 -3 -7 2 -16 10 -19 9 -4 16 -13 16
-22 0 -8 5 -15 10 -15 6 0 10 -7 10 -15 0 -7 6 -18 13 -22 8 -4 17 -15 21 -23
18 -39 33 -59 39 -53 4 3 7 -4 7 -16 0 -12 4 -20 9 -16 5 3 12 -4 16 -15 3
-11 11 -20 16 -20 6 0 8 -4 5 -8 -3 -5 4 -15 15 -22 10 -8 19 -20 19 -26 0 -7
7 -15 16 -18 8 -3 13 -10 10 -15 -3 -5 1 -12 10 -15 8 -3 12 -11 8 -17 -4 -7
-3 -9 3 -6 11 7 55 -38 46 -47 -4 -3 1 -6 10 -6 9 0 16 -4 14 -9 -1 -5 13 -23
31 -40 17 -17 32 -33 32 -36 0 -9 192 -195 201 -195 6 0 7 -4 4 -10 -3 -5 -1
-10 5 -10 9 0 46 -31 116 -98 13 -12 28 -22 34 -22 5 0 10 -5 10 -10 0 -6 11
-16 25 -22 14 -6 25 -18 25 -25 0 -8 4 -12 8 -9 5 3 24 -8 43 -24 19 -16 40
-29 47 -30 7 0 10 -5 7 -10 -3 -6 1 -10 9 -10 9 0 16 -4 16 -10 0 -5 7 -10 15
-10 8 0 15 -4 15 -10 0 -5 7 -10 15 -10 8 0 15 -4 15 -10 0 -5 7 -10 15 -10 8
0 15 -4 15 -10 0 -5 7 -10 15 -10 9 0 18 -7 21 -15 4 -8 10 -12 15 -10 5 3 16
-3 26 -14 9 -11 20 -18 24 -16 4 3 12 -2 19 -10 7 -8 19 -15 26 -15 8 0 14 -4
14 -8 0 -5 16 -14 35 -22 19 -8 35 -17 35 -22 0 -4 6 -8 13 -8 6 0 28 -10 47
-22 19 -12 37 -23 40 -23 18 -5 49 -21 74 -39 18 -12 26 -14 21 -5 -7 12 -6
12 11 -1 10 -8 22 -19 25 -23 3 -5 8 -7 10 -6 2 2 24 -5 49 -16 25 -10 48 -18
52 -17 5 1 8 -2 8 -8 0 -6 3 -9 8 -8 4 0 15 -2 25 -5 9 -4 25 -10 35 -14 9 -3
19 -7 22 -8 3 -1 18 -7 33 -13 16 -7 35 -12 43 -12 8 0 14 -5 14 -11 0 -6 7
-8 15 -5 9 3 18 -1 22 -10 3 -9 8 -11 12 -6 4 6 21 3 46 -9 22 -11 45 -17 52
-15 7 3 13 1 13 -5 0 -6 5 -7 10 -4 6 3 10 2 10 -4 0 -5 8 -8 18 -6 9 1 23 -2
29 -8 7 -5 13 -6 13 -2 0 4 8 1 17 -6 15 -12 16 -12 8 1 -8 13 -7 13 9 1 9 -8
29 -16 44 -18 15 -2 35 -4 45 -5 9 -1 17 -6 17 -10 0 -5 11 -6 25 -4 14 3 25
1 25 -3 0 -4 6 -8 13 -8 6 0 30 -4 52 -8 22 -4 50 -8 63 -9 12 -1 22 -4 22 -7
0 -3 14 -5 30 -4 17 1 30 -1 30 -5 0 -4 7 -7 15 -7 8 0 15 5 15 11 0 6 4 5 9
-2 4 -8 28 -14 55 -15 25 0 46 -5 46 -10 0 -5 6 -4 14 2 8 7 17 8 20 3 2 -4
26 -10 53 -11 26 -2 59 -4 73 -5 14 -1 31 3 39 9 11 7 13 7 8 -2 -9 -14 371
-16 390 -1 7 5 14 5 17 -1 4 -6 13 -8 20 -5 8 3 40 7 72 9 33 2 59 4 59 5 0 1
55 7 123 13 21 2 44 7 50 11 7 4 17 4 22 1 6 -3 10 -2 10 2 0 5 12 8 28 7 15
-1 33 3 40 9 7 5 15 7 18 5 3 -3 24 -1 47 4 23 6 51 12 62 13 11 2 20 4 20 5
0 1 9 3 19 5 11 2 31 7 45 11 14 4 32 6 39 5 6 -1 12 2 12 7 0 5 6 9 13 9 30
2 82 15 94 24 7 6 17 8 22 5 5 -4 12 -2 16 4 4 6 11 8 16 5 5 -4 9 -1 9 5 0 7
6 10 14 7 7 -3 18 -1 22 3 5 5 18 11 29 13 11 2 30 9 43 15 12 7 22 9 22 5 0
-4 5 -2 11 4 6 6 18 9 27 6 10 -4 13 -2 8 5 -5 8 0 12 13 12 12 0 21 4 21 10
0 5 7 7 15 4 8 -4 15 -1 15 5 0 6 7 8 15 5 8 -4 15 -1 15 5 0 6 6 11 13 11 6
0 25 7 41 15 15 8 32 12 37 9 5 -3 9 -1 9 3 0 5 16 15 35 22 21 7 33 17 29 23
-4 7 -2 8 4 4 6 -3 25 2 43 13 18 11 36 18 41 15 4 -3 8 -1 8 4 0 4 16 14 35
22 19 8 35 18 35 23 0 5 7 7 15 3 8 -3 15 -2 15 3 0 5 16 16 35 25 19 9 37 21
40 26 4 6 10 8 15 5 4 -3 11 2 14 11 3 8 10 12 16 9 5 -3 10 -1 10 4 0 6 5 11
10 11 6 0 20 9 32 20 12 11 28 20 35 20 7 0 13 5 13 10 0 6 5 10 11 10 6 0 17
7 26 15 8 8 19 12 25 9 6 -4 8 -3 5 2 -3 6 12 21 34 34 21 14 39 28 39 33 0 4
4 6 9 3 5 -3 11 1 15 9 3 8 10 15 15 15 6 0 21 10 34 22 13 13 39 34 57 48 19
14 46 37 62 52 15 14 28 25 28 23 0 -3 16 11 35 30 19 20 38 35 42 34 4 0 10
7 13 16 3 9 10 17 15 18 6 1 9 5 8 9 -2 5 1 8 6 8 9 0 118 106 189 183 24 26
41 47 38 47 -3 0 7 12 22 28 15 15 46 49 67 77 40 50 50 62 73 89 6 8 12 20
12 26 0 5 5 10 10 10 6 0 14 8 17 17 6 16 24 40 49 67 6 6 11 15 11 19 1 9 31
52 51 73 7 8 10 14 6 14 -4 0 1 9 11 20 10 11 15 20 11 20 -4 0 -1 7 6 15 30
33 38 45 32 45 -4 0 0 8 8 18 8 9 27 42 43 72 15 30 30 57 34 60 14 11 31 52
26 60 -4 6 -2 10 4 10 6 0 13 11 17 25 3 14 11 25 16 25 6 0 8 7 4 15 -3 8 -1
15 5 15 6 0 7 5 4 10 -3 6 -1 10 5 10 6 0 8 4 5 10 -3 6 -1 10 4 10 6 0 11 9
11 20 0 11 6 23 14 26 8 3 12 13 9 25 -3 10 0 19 6 19 6 0 10 3 9 8 -1 4 3 17
10 30 7 12 10 22 6 22 -3 0 -1 6 5 13 6 8 8 17 4 20 -3 4 0 7 7 7 7 0 10 3 7
7 -4 3 -2 12 4 19 6 8 9 20 6 28 -3 8 0 17 8 20 7 2 12 16 11 30 -2 14 1 23 5
20 8 -5 14 17 10 38 0 5 3 8 7 8 5 0 9 6 10 13 0 6 6 30 12 52 6 22 12 46 12
53 1 6 5 12 9 12 4 0 6 9 4 20 -2 11 0 22 6 25 5 4 9 19 9 36 0 16 4 29 8 29
4 0 8 10 9 23 0 12 4 36 8 52 3 17 8 37 9 45 1 9 4 20 8 25 3 6 4 20 3 32 -1
12 2 20 6 18 4 -3 7 5 6 18 0 12 3 36 7 52 8 37 17 116 19 172 1 22 5 39 8 37
3 -1 5 32 5 75 -1 44 2 77 6 75 11 -7 7 439 -5 454 -6 8 -6 12 2 12 8 0 9 6 3
18 -5 9 -8 32 -7 50 2 17 -2 32 -8 32 -7 0 -7 4 1 12 14 14 16 32 4 24 -5 -3
-8 21 -8 53 1 33 -2 57 -6 54 -5 -2 -8 -1 -9 4 -6 85 -15 142 -24 151 -2 3 1
12 8 20 9 13 9 14 0 8 -13 -7 -18 10 -14 43 2 8 -2 10 -11 5 -11 -6 -11 -5 0
8 9 12 10 18 2 23 -6 4 -9 13 -6 21 3 8 1 14 -3 14 -5 0 -8 13 -7 30 1 16 -1
31 -6 32 -4 2 -9 15 -10 31 -1 15 -5 27 -9 27 -3 0 -6 7 -6 15 0 13 -16 74
-31 115 -3 8 -6 22 -8 31 -2 9 -9 29 -15 45 -7 16 -11 35 -10 42 1 6 -3 12 -9
12 -6 0 -9 4 -5 9 3 6 -1 16 -8 23 -8 7 -12 20 -9 30 2 10 0 18 -6 18 -6 0 -9
9 -7 20 2 11 0 18 -4 15 -8 -4 -16 13 -26 52 -7 27 -30 73 -37 73 -5 0 -8 10
-8 23 0 12 -7 32 -15 43 -8 12 -11 24 -8 28 3 3 1 6 -5 6 -7 0 -12 7 -12 15 0
8 -4 15 -10 15 -5 0 -9 3 -8 8 3 11 -40 100 -52 107 -5 3 -10 13 -10 21 0 9
-7 22 -15 31 -8 8 -13 19 -10 24 4 5 1 9 -4 9 -6 0 -11 7 -11 15 0 8 -4 15
-10 15 -5 0 -10 7 -10 15 0 8 -5 15 -11 15 -5 0 -8 4 -5 9 3 5 -1 14 -9 21 -8
7 -15 17 -15 23 0 5 -8 17 -17 26 -10 9 -19 23 -21 31 -2 8 -8 17 -13 18 -5 2
-9 10 -9 18 0 8 -4 14 -10 14 -5 0 -10 5 -10 11 0 6 -6 17 -12 24 -30 34 -38
45 -32 45 4 0 -2 8 -13 18 -11 9 -22 25 -26 35 -3 9 -11 17 -17 17 -6 0 -9 4
-6 8 3 5 -4 15 -15 22 -10 8 -19 18 -19 23 0 4 -10 18 -22 31 -38 39 -58 66
-58 77 0 5 -4 8 -9 4 -5 -3 -12 4 -16 15 -3 11 -15 25 -26 31 -11 5 -17 14
-14 20 4 5 -1 9 -9 9 -9 0 -16 4 -16 9 0 14 -117 130 -124 124 -3 -4 -6 -1 -6
6 0 7 -20 32 -45 55 -25 24 -45 42 -45 39 0 -2 -16 12 -35 32 -20 19 -40 35
-45 35 -6 0 -10 8 -10 17 0 9 -3 14 -6 10 -4 -3 -25 12 -48 33 -22 22 -47 40
-53 40 -7 0 -13 5 -13 10 0 6 -4 10 -9 10 -6 0 -25 14 -43 31 -18 17 -45 37
-60 45 -16 8 -28 19 -28 25 0 6 -4 8 -8 5 -5 -3 -20 6 -34 19 -14 13 -29 21
-32 18 -3 -4 -6 -1 -6 5 0 7 -7 12 -15 12 -7 0 -18 8 -24 17 -5 10 -13 15 -16
11 -4 -4 -16 1 -26 11 -11 10 -32 24 -47 32 -15 8 -29 16 -32 19 -3 3 -26 17
-52 30 -27 14 -48 28 -48 32 0 3 -8 5 -17 4 -10 -2 -24 5 -31 16 -7 10 -17 16
-22 13 -5 -3 -15 1 -23 9 -8 8 -17 12 -21 9 -3 -4 -6 -1 -6 5 0 7 -9 12 -19
12 -11 0 -22 4 -26 10 -3 5 -13 6 -22 3 -10 -4 -14 -2 -9 5 3 6 -3 14 -16 18
-13 3 -41 15 -63 25 -22 10 -47 19 -55 21 -8 2 -18 7 -21 11 -3 4 -16 9 -27
10 -12 1 -22 5 -22 10 0 4 -4 5 -10 2 -5 -3 -10 -1 -10 4 0 6 -3 10 -7 10 -5
-1 -11 0 -15 1 -5 1 -11 3 -15 5 -5 1 -15 5 -23 8 -39 16 -107 37 -122 37 -10
0 -18 4 -18 8 0 5 -6 9 -12 10 -26 1 -72 13 -88 22 -10 5 -20 6 -24 3 -3 -3
-6 -2 -6 4 0 5 -14 9 -30 8 -17 -1 -34 3 -38 9 -4 6 -16 12 -27 12 -50 4 -155
26 -174 38 -6 4 -11 1 -11 -6 0 -10 -2 -10 -9 1 -5 8 -16 11 -25 8 -9 -4 -16
-3 -16 1 0 4 -13 8 -30 10 -16 1 -43 3 -60 4 -16 2 -30 6 -30 9 0 3 -11 4 -24
2 -13 -3 -34 0 -46 7 -18 10 -21 9 -15 -1 6 -9 3 -10 -11 -5 -10 5 -41 10 -69
12 -27 3 -56 7 -62 9 -7 2 -13 0 -13 -5 0 -6 -5 -10 -11 -10 -5 0 -8 4 -5 9 3
5 -89 9 -214 9 -126 0 -223 -4 -226 -10 -3 -5 -12 -4 -20 3 -11 9 -14 8 -14
-2 0 -12 -2 -12 -9 0 -5 7 -11 9 -14 4z"/>
</g>
</svg>
